<svg width="491" height="171" viewBox="0 0 491 171" xmlns="http://www.w3.org/2000/svg" xmlns:xlink="http://www.w3.org/1999/xlink"><title>Handbook Illustration</title><defs><path id="a" d="M.471.017h172.656V169.89H.471z"/><path d="M119.7 108.87H46.28l-23.961 49.157c-1.264 2.591-1.39 8.501 4.614 10.42v1.08H.493v-1.08s11.435-1.722 16.011-13.827C21.081 142.514 89.488 1.383 89.488 1.383s1.135-.972 1.56 0c6.684 15.268 58.846 143.393 63.856 154.28 5.01 10.889 14.849 13.246 20.037 13.246v.619h-43.776v-.619c3.218-1.255 9.313-5.159 7.52-12.11-.71-2.751-9.105-23.669-18.985-47.93zm-3.061-7.51c-14.395-35.263-30.516-74.235-30.516-74.235L49.939 101.36h66.7z" id="b"/><ellipse id="c" cx="53.875" cy="67.962" rx="53.454" ry="67.137"/><ellipse id="d" cx="46.128" cy="65.597" rx="53.454" ry="67.137"/><ellipse id="e" cx="46.128" cy="65.597" rx="53.454" ry="67.137"/></defs><g fill="none" fill-rule="evenodd"><g transform="translate(298.22)"><ellipse stroke="#2E3542" stroke-width="1.361" fill="#E9EEF4" cx="86.799" cy="84.954" rx="85.374" ry="83.998"/><use fill="#FFF" xlink:href="#a"/><path stroke="#C6CBDE" stroke-width="1.68" d="M1.311.857h170.976V169.05H1.311zM86.59.956v168.596M1.49 84.018h171.561M2.354.763l170.7 168.915M172.477.716L1.352 169.57"/><ellipse stroke="#C6CBDE" stroke-width="1.68" cx="27.18" cy="161.444" rx="7.631" ry="7.508"/><ellipse stroke="#C6CBDE" stroke-width="1.68" cx="126.386" cy="158.628" rx="10.493" ry="10.324"/><ellipse stroke="#C6CBDE" stroke-width="1.68" cx="173.303" cy="151.041" rx="18.619" ry="18.319"/><ellipse stroke="#C6CBDE" stroke-width="1.68" cx="86.799" cy="84.954" rx="85.374" ry="83.998"/></g><g transform="translate(295.983 .984)"><use fill="#FFF" xlink:href="#b"/><use fill="#5F8BFA" xlink:href="#b"/></g><path d="M416.552 109h-73.42l-23.962 49.157c-1.264 2.591-1.39 8.502 4.615 10.42v1.081h-26.44v-1.081s11.434-1.721 16.01-13.827C317.933 142.644 386.34 1.513 386.34 1.513s1.135-.972 1.56 0c6.683 15.269 58.846 143.393 63.856 154.281 5.01 10.888 14.848 13.245 20.037 13.245v.62h-43.776v-.62c3.217-1.254 9.312-5.159 7.519-12.11-.71-2.75-9.105-23.669-18.984-47.93zm-3.062-7.509c-14.394-35.264-30.516-74.236-30.516-74.236l-36.183 74.236h66.7z" stroke="#3B3E4D" stroke-width="1.68"/><path fill="#FFF" d="M75.959 103.096l39.807-37.12 41.347 44.338-39.807 37.121z"/><path d="M82.05 102.998l38.925-36.297 41.147 44.125-38.924 36.297-41.147-44.125zm29.71-3.452l4.555 10.847c.632 1.39 1.23 2.38 1.792 2.973.563.592 1.256.746 2.08.463.81-.279 1.264-.842 1.365-1.689.101-.847-.029-1.968-.39-3.364l-2.949-11.763a32.44 32.44 0 0 0-.909-3.16c-.595-1.73-1.273-2.979-2.032-3.746-.76-.766-1.795-.924-3.108-.472-1.084.374-1.834 1.034-2.25 1.98-.417.947-.405 2.062.037 3.344.324.943.928 2.471 1.81 4.587zm12.485 25.32a3.695 3.695 0 0 0 2.087-1.75c.476-.85.528-1.813.158-2.887a3.47 3.47 0 0 0-1.855-2.079c-.91-.434-1.845-.485-2.806-.154-.962.331-1.66.945-2.094 1.841-.434.897-.487 1.82-.16 2.773.376 1.09 1.015 1.818 1.919 2.186.903.367 1.82.39 2.751.07z" fill="#5AE2C2"/><path d="M77.146 103.138l40.302 43.218 38.579-35.975-40.302-43.218-38.579 35.975z" stroke="#3B3E4D" stroke-width="1.68"/><g transform="rotate(19 57.127 544.66)"><use fill="#EEF2F7" xlink:href="#c"/><ellipse stroke="#484F5B" stroke-width="1.68" cx="46.128" cy="65.597" rx="54.294" ry="67.977"/><mask id="f" fill="#fff"><use xlink:href="#e"/></mask><use fill="#FFF" xlink:href="#e"/><g transform="translate(4.716 11.867)" mask="url(#f)"><path d="M15.793 17.157c-4.594-5.995-2.727 12.402-9.29 19.713-6.564 7.312-7.53 11.78-4.72 18.397 2.811 6.616 9.676 5.86 14.01 5.86s3.225-12.477 3.225-12.477 1.369-25.499-3.225-31.493zM25.221 69.852S-2.729 80.786 1.243 88.913c3.972 8.127 11.704 17.397 22.403 22.294 10.7 4.897 22.771 4.887 34.181 0C69.237 106.32 84.1 88.913 85.983 72.07c2.07-18.517-60.762-2.218-60.762-2.218z" fill="#C6CBDE"/><path d="M1.655 87.395c7.287-4.017 17.29-4.31 28.768-2.472C41.9 86.76 51.59 93.376 58.25 102.754c19.082-22.313 27.63-44.708 17.498-56.16-10.132-11.452-37.366-14.938-45.325-7.015C22.463 47.5 5.065 54.022 1.655 87.395z" stroke="#C6CBDE" stroke-width="1.68" fill="#FFF"/><path d="M39.165 2.656c-13.435 0-20.963 1.792-24.994 13.312-4.03 11.52-2.104 15.233-2.104 18.224 0 2.99 1.838 4.493.714 9.61-1.124 5.115 0 13.64 5.784 25.836 3.248 6.849 1.094 6.576 10.92 8.276 9.826 1.7 24.007-11.651 29.29-25.342 5.438 2 7.877 2.963 7.877-2.2 0-5.164.867-20.665-2.439-31.048C60.908 8.941 52.6 2.656 39.165 2.656z" stroke="#C6CBDE" stroke-width="1.68" fill="#FFF"/><ellipse fill="#C6CBDE" cx="40.301" cy="44.557" rx="2.233" ry="2.763"/><ellipse fill="#C6CBDE" cx="19.958" cy="43.502" rx="1.839" ry="2.936"/><path d="M24.161 42.113s-1.082 3.886-2.7 6.522c-1.619 2.637-3.185 5.57-.156 6.518 2.066.646 1.374 3.482 1.374 3.482l-.687 3.854s-.312.943 6.645.943h5.684" stroke="#C6CBDE" stroke-width="1.68"/><path d="M10.226 54.318s3.782 2.416 8.18 2.357c4.398-.06 4.505.105 4.505.105l-.583 3.6s-2.917-.005-6.41-1.327c-3.494-1.323-5.692-4.735-5.692-4.735zm14.79 13.6l6.532-.22-.806 8.827-5.468-.52-.258-8.087zM27.89 57.88s4.272.53 10.13.53c5.857 0 10.608-4.383 10.608-4.383s-3.055 5.407-6.156 6.419c-3.102 1.011-11.386.3-13.6.3-2.214 0-.982-2.866-.982-2.866zM12.24 37.003s5.151-1.532 7.939.474c2.788 2.005 3.871 1.61 3.871 1.61l.165-2.14s-2.76-3.502-7.362-2.484c-4.602 1.02-4.613 2.54-4.613 2.54zM31.589 38.787s3.706-2.263 8.339-1.555c4.632.71 8.419 1.82 9.47 3.203.468.614 1.553.707 0-.917-1.937-2.029-6.383-4.035-7.203-4.434-2.392-1.161-8.66-.181-9.633.616-.973.798-.973 3.087-.973 3.087z" fill="#C6CBDE"/><path d="M53.661 61.789s7.998 6.94 16.543 2.164c8.544-4.775 12.304-13.514 5.72-19.187-6.584-5.674-5.72-8.524-5.72-16.416 0-7.892 1.397-13.123-8.295-21.43-9.692-8.308-28.816-8.428-36.924-3.648-8.109 4.78-8.014 7.062-8.014 7.062s3.31-2.777 8.656-4.027c5.278-1.235 12.561-.96 17.292 1.505 9.522 4.96 12.757 5.996 12.757 15.918 0 9.921-4.287 22.636-.307 22.636s6.54-5.35 6.54-5.35 1.64-1.038 1.64 5.35c0 6.387-6.158 5.582-6.158 5.582l-3.73 9.84z" fill="#C6CBDE"/></g></g><g><path fill="#FFF" d="M248.49 93.235l50.786-11.725 12.207 52.871-50.786 11.725z"/><path d="M253.457 96.45l51.48-11.885 12.217 52.919-51.48 11.885-12.217-52.919zm25.982 33.477l.989 3.446c3.384-1.533 14.632-11.835 11.325-23.365-2.44-8.51-8.96-8.97-12.18-8.048-2.362.677-4.23 1.99-5.608 3.94-1.377 1.949-1.705 4.18-.984 6.693.865 3.016 4.926 7.051 10.465 5.463 1.303 4.545-2.036 10.373-4.007 11.87z" fill="#5AE2C2" style="mix-blend-mode:multiply"/><path d="M249.498 93.864l11.828 51.234 49.65-11.462-11.829-51.234-49.649 11.462z" stroke="#3B3E4D" stroke-width="1.68"/></g><g><path d="M52.098 67.327c0-3.678-2.98-6.66-6.657-6.66a6.658 6.658 0 0 0 6.657-6.66c0 3.68 2.98 6.66 6.656 6.66a6.658 6.658 0 0 0-6.656 6.66" fill="#E4E6F2"/><path d="M54.294 68.06c0-3.679-2.98-6.66-6.656-6.66a6.658 6.658 0 0 0 6.656-6.66c0 3.679 2.98 6.66 6.657 6.66a6.658 6.658 0 0 0-6.657 6.66z" stroke="#4E5356" stroke-width="1.512" stroke-linecap="round" stroke-linejoin="round"/><path d="M143.44 166.076c0-4.828-3.86-8.743-8.622-8.743 4.762 0 8.623-3.913 8.623-8.742 0 4.829 3.86 8.742 8.622 8.742-4.762 0-8.622 3.915-8.622 8.743" fill="#E4E6F2"/><path d="M135.678 159.882c4.761 0 8.622-3.913 8.622-8.742 0 4.829 3.86 8.742 8.622 8.742-4.761 0-8.622 3.915-8.622 8.743 0-4.828-3.86-8.743-8.622-8.743z" stroke="#4E5356" stroke-width="1.512" stroke-linecap="round" stroke-linejoin="round"/><g><path d="M133.82 35.773c0-7.094-5.75-12.846-12.84-12.846 7.09 0 12.84-5.75 12.84-12.845 0 7.095 5.748 12.845 12.839 12.845-7.09 0-12.84 5.752-12.84 12.846" fill="#E4E6F2"/><path d="M131.066 33.48c0-7.094-5.75-12.845-12.84-12.845 7.09 0 12.84-5.75 12.84-12.846 0 7.095 5.748 12.846 12.84 12.846-7.092 0-12.84 5.751-12.84 12.845z" stroke="#4E5356" stroke-width="1.512" stroke-linecap="round" stroke-linejoin="round"/></g><g><path d="M267.98 36.25c6.028 0 10.915-4.889 10.915-10.92 0 6.031 4.886 10.92 10.913 10.92-6.027 0-10.913 4.888-10.913 10.918 0-6.03-4.887-10.919-10.914-10.919z" fill="#E4E6F2"/><path d="M276.638 44.589c0-6.03-4.887-10.919-10.914-10.919 6.027 0 10.914-4.887 10.914-10.918 0 6.03 4.887 10.918 10.914 10.918-6.027 0-10.914 4.89-10.914 10.919z" stroke="#4E5356" stroke-width="1.512" stroke-linecap="round" stroke-linejoin="round"/></g></g><g opacity=".8"><path d="M77.025 148.423c-3.25 1.052-12.9-8.808-24.978-15.58-8.025-4.5-16.37-4.188-27.257-9.127-10.887-4.94-25.387-15.391-21.437-26.956 3.95-11.564 24.002-11.45 47.463.907 23.462 12.358 34.132 37.487 33.333 45.19-.337 3.246-1.99 3.904-7.124 5.566z" fill="#FFF"/><path d="M77.104 121.27c-5.027-7.927-32.058-23.51-42.063-25.029-10.397-1.577-30.7 7.716-3.448 28.526 10.508 7.876 12.31 3.895 24.55 10.483 11.616 6.254 21.393 16.258 26.784 13.541 7.444-3.75.698-17.237-5.823-27.521z" fill="#F1F2FA"/><path d="M85.342 146.29c.948-3.536 1.733-9.726-7.193-23.116-8.927-13.391-22.183-10.544-24.896-6.671-2.713 3.873-6.717 9.151.528 16.262 7.244 7.112 15.96 13.387 20.88 14.705 4.92 1.318 9.734 2.356 10.681-1.18z" fill="#C6CBDE"/><path d="M82.051 148.359c1.311-.426 7.823 1.302 1.437-15.442-6.386-16.743-25.382-38.363-56.756-43.518-31.374-5.155-30.865 17.564-16.417 27.55 15.418 10.657 35.116 11.403 50.104 20.91 7.907 5.015 14.907 12.685 21.632 10.5z" stroke="#C6CBDE" stroke-width="1.68"/><path d="M91.025 154.816c2.213 4.195 2.9 9.083-2.645.86-3.952-5.86-15.446-19.323-30.562-30.868-13.523-10.33-29.645-17.224-29.645-17.224s-1.618-2.465 1.798-1.53c7.408 2.029 24.385 9.335 33.447 16.935 13.24 11.103 21.67 20.572 27.607 31.827z" stroke="#C6CBDE" stroke-width="1.68" fill="#FFF"/></g></g></svg>