<svg width="16" height="13" viewBox="0 0 13 13" xmlns="http://www.w3.org/2000/svg"><title>Instagram</title><path d="M11.375 11.781h-9.75a.406.406 0 0 1-.406-.406V5.281h1.625c-.212.305-.283.873-.283 1.234a3.955 3.955 0 0 0 7.909 0c0-.36-.051-.92-.314-1.234h1.625v6.094a.406.406 0 0 1-.406.406m-4.86-7.76c1.38 0 2.5 1.117 2.5 2.494a2.497 2.497 0 0 1-2.5 2.494c-1.38 0-2.5-1.116-2.5-2.494a2.497 2.497 0 0 1 2.5-2.494M9.75 1.625h1.219c.224 0 .406.182.406.406V3.25a.406.406 0 0 1-.406.406H9.75a.406.406 0 0 1-.406-.406V2.031c0-.224.182-.406.406-.406M11.455 0h-9.91C.692 0 0 .69 0 1.542v9.916C0 12.31.692 13 1.545 13h9.91c.853 0 1.545-.69 1.545-1.542V1.542C13 .69 12.308 0 11.455 0" fill="#6D758D" fill-rule="evenodd"/></svg>
