<svg width="162" height="29" viewBox="0 0 1625 285" fill="none" xmlns="http://www.w3.org/2000/svg"><path fill-rule="evenodd" clip-rule="evenodd" d="M1399.5 57.885c-7.29 0-13.2 5.898-13.2 13.203v102.449c0 7.291 5.91 13.203 13.2 13.203 7.29 0 13.19-5.912 13.19-13.203V71.088c0-7.305-5.9-13.203-13.19-13.203Zm-50.14 81.099v.351c0 15.626-10.42 25.704-22.75 25.704-12.32 0-22.57-10.248-22.57-25.704v-.351c0-15.456 10.25-25.703 22.57-25.703 12.33 0 22.75 10.247 22.75 25.703Zm-58.18-81.094c-7.28 0-13.18 5.898-13.18 13.203V173.54c0 7.292 5.9 13.204 13.18 13.204 7.3 0 13.2-5.912 13.2-13.034v-.17c6.25 7.461 14.94 13.881 29 13.881 22.06 0 42.37-17.006 42.37-48.087v-.351c0-31.081-20.66-48.112-42.37-48.112-13.71 0-22.57 6.432-29 15.117V71.093c0-7.305-5.9-13.203-13.2-13.203Zm205.65 81.788v-.338c0-13.724-9.91-25.716-24.49-25.716-15.11 0-24.13 11.64-24.13 25.351v.365c0 13.698 9.88 25.69 24.48 25.69 15.12 0 24.14-11.628 24.14-25.352Zm-74.66 0v-.338c0-26.758 21.52-48.464 50.52-48.464 28.81 0 50.18 21.367 50.18 48.099v.365c0 26.732-21.52 48.438-50.53 48.438-28.83 0-50.17-21.355-50.17-48.1Zm176.75-5.374v.339c0 12.682-9.91 21.523-22.75 21.523-12.85 0-22.57-8.685-22.57-21.523v-.339c0-12.682 9.72-21.549 22.57-21.549 12.84 0 22.75 8.867 22.75 21.549Zm-67.39 62.852c0 4.857 2.96 8.503 7.48 10.248 10.93 4.336 21.7 6.419 34.03 6.419 18.05 0 31.44-3.815 40.12-12.5 7.8-7.813 11.8-19.974 11.8-36.641v-59.909c0-7.292-5.9-13.203-13.2-13.203-7.28 0-13.18 5.911-13.18 13.02v.183c-7.12-7.826-15.64-13.894-30.06-13.894-21.36 0-41.32 15.639-41.32 43.425v.339c0 27.604 19.62 43.411 41.32 43.411 14.07 0 22.57-5.729 30.4-15.104v4.518c0 16.667-8.51 25.352-26.57 25.352-9.91 0-18.07-2.083-25.71-5.56-1.2-.521-2.6-.872-4.34-.872-5.9 0-10.77 4.87-10.77 10.768Z" fill="#15C39A"/><path fill-rule="evenodd" clip-rule="evenodd" d="M370.095 210.033c-4.476-1.71-7.404-5.316-7.404-10.124 0-5.83 4.818-10.631 10.675-10.631 1.722 0 3.096.34 4.302.855 7.578 3.432 15.666 5.489 25.483 5.489 17.904 0 26.341-8.575 26.341-25.049v-4.461c-7.753 9.269-16.183 14.925-30.127 14.925-21.523 0-40.982-15.613-40.982-42.892v-.341c0-27.453 19.801-42.892 40.982-42.892 14.286 0 22.722 6.003 29.779 13.723v-.174c0-7.032 5.856-12.862 13.086-12.862 7.231 0 13.081 5.83 13.081 13.036v59.193c0 16.474-3.954 28.482-11.707 36.201-8.604 8.581-21.865 12.355-39.763 12.355-12.229 0-22.903-2.057-33.746-6.351Zm59.397-71.888v-.341c0-12.528-9.817-21.276-22.555-21.276-12.739 0-22.381 8.748-22.381 21.276v.341c0 12.695 9.642 21.276 22.381 21.276 12.738 0 22.555-8.749 22.555-21.276Z" fill="#0E101A"/><path fill-rule="evenodd" clip-rule="evenodd" d="M370.095 210.033c-4.476-1.71-7.404-5.316-7.404-10.124 0-5.83 4.818-10.631 10.675-10.631 1.722 0 3.096.34 4.302.855 7.578 3.432 15.666 5.489 25.483 5.489 17.904 0 26.341-8.575 26.341-25.049v-4.461c-7.753 9.269-16.183 14.925-30.127 14.925-21.523 0-40.982-15.613-40.982-42.892v-.341c0-27.453 19.801-42.892 40.982-42.892 14.286 0 22.722 6.003 29.779 13.723v-.174c0-7.032 5.856-12.862 13.086-12.862 7.231 0 13.081 5.83 13.081 13.036v59.193c0 16.474-3.954 28.482-11.707 36.201-8.604 8.581-21.865 12.355-39.763 12.355-12.229 0-22.903-2.057-33.746-6.351Zm59.397-71.888v-.341c0-12.528-9.817-21.276-22.555-21.276-12.739 0-22.381 8.748-22.381 21.276v.341c0 12.695 9.642 21.276 22.381 21.276 12.738 0 22.555-8.749 22.555-21.276ZM470.126 108.635c0-7.206 5.85-13.036 13.086-13.036 7.23 0 13.08 5.83 13.08 13.036v4.114c3.793-8.916 9.985-17.15 17.737-17.15 8.095 0 12.739 5.316 12.739 12.689 0 6.865-4.476 10.985-9.81 12.187-13.261 3.091-20.666 13.209-20.666 31.74v24.361c0 7.206-5.85 13.042-13.08 13.042-7.236 0-13.086-5.836-13.086-13.042v-67.941ZM523.672 162.165v-.34c0-20.074 15.318-29.343 37.189-29.343 9.295 0 16.009 1.543 22.555 3.773v-1.543c0-10.805-6.72-16.815-19.801-16.815-7.23 0-13.086 1.035-18.078 2.578-1.548.514-2.58.688-3.786.688-6.025 0-10.849-4.635-10.849-10.645 0-4.628 2.922-8.574 7.062-10.123 8.263-3.086 17.215-4.796 29.437-4.796 14.287 0 24.619 3.773 31.16 10.291 6.888 6.859 9.99 16.989 9.99 29.343v41.858c0 7.038-5.682 12.527-12.744 12.527-7.573 0-12.565-5.316-12.565-10.811v-.174c-6.372 7.039-15.15 11.667-27.895 11.667-17.383 0-31.675-9.944-31.675-28.135Zm60.086-6.003v-4.635c-4.476-2.057-10.326-3.432-16.705-3.432-11.19 0-18.072 4.461-18.072 12.701v.341c0 7.038 5.856 11.152 14.286 11.152 12.229 0 20.491-6.691 20.491-16.127ZM622.502 108.635c0-7.206 5.85-13.036 13.087-13.036 7.23 0 13.086 5.83 13.086 13.036v1.035c6.018-7.726 13.945-14.758 27.199-14.758 12.048 0 21.175 5.315 25.993 14.584 8.094-9.436 17.737-14.584 30.301-14.584 19.459 0 31.166 11.666 31.166 33.803v47.861c0 7.206-5.857 13.042-13.087 13.042-7.23 0-13.087-5.836-13.087-13.042V137.29c0-12.354-5.508-18.705-15.318-18.705-9.817 0-15.841 6.351-15.841 18.705v39.286c0 7.206-5.85 13.042-13.086 13.042-7.231 0-13.087-5.836-13.087-13.042V137.29c0-12.354-5.502-18.705-15.318-18.705-9.817 0-15.835 6.351-15.835 18.705v39.286c0 7.206-5.856 13.042-13.086 13.042-7.237 0-13.087-5.836-13.087-13.042v-67.941ZM777.458 108.635c0-7.206 5.85-13.036 13.087-13.036 7.23 0 13.087 5.83 13.087 13.036v1.035c6.017-7.726 13.944-14.758 27.198-14.758 12.049 0 21.175 5.315 25.993 14.584 8.095-9.436 17.737-14.584 30.302-14.584 19.458 0 31.165 11.666 31.165 33.803v47.861c0 7.206-5.85 13.042-13.087 13.042-7.23 0-13.086-5.836-13.086-13.042V137.29c0-12.354-5.508-18.705-15.319-18.705-9.816 0-15.84 6.351-15.84 18.705v39.286c0 7.206-5.85 13.042-13.087 13.042-7.23 0-13.08-5.836-13.08-13.042V137.29c0-12.354-5.509-18.705-15.325-18.705-9.817 0-15.834 6.351-15.834 18.705v39.286c0 7.206-5.857 13.042-13.087 13.042-7.237 0-13.087-5.836-13.087-13.042v-67.941ZM926.907 162.165v-.34c0-20.074 15.324-29.343 37.183-29.343 9.3 0 16.015 1.543 22.555 3.773v-1.543c0-10.805-6.708-16.815-19.801-16.815-7.23 0-13.08 1.035-18.073 2.578-1.548.514-2.58.688-3.786.688-6.03 0-10.848-4.635-10.848-10.645 0-4.628 2.928-8.574 7.056-10.123 8.269-3.086 17.221-4.796 29.443-4.796 14.293 0 24.619 3.773 31.164 10.291 6.88 6.859 9.98 16.989 9.98 29.343v41.858c0 7.038-5.68 12.527-12.732 12.527-7.579 0-12.571-5.316-12.571-10.811v-.174c-6.372 7.039-15.157 11.667-27.889 11.667-17.395 0-31.681-9.944-31.681-28.135Zm60.086-6.003v-4.635c-4.476-2.057-10.332-3.432-16.699-3.432-11.196 0-18.078 4.461-18.078 12.701v.341c0 7.038 5.85 11.152 14.286 11.152 12.222 0 20.491-6.691 20.491-16.127ZM1025.73 108.635c0-7.206 5.86-13.036 13.09-13.036 7.23 0 13.08 5.83 13.08 13.036v4.114c3.79-8.916 9.99-17.15 17.74-17.15 8.09 0 12.73 5.316 12.73 12.689 0 6.865-4.47 10.985-9.81 12.187-13.25 3.091-20.66 13.209-20.66 31.74v24.361c0 7.206-5.85 13.042-13.08 13.042s-13.09-5.836-13.09-13.042v-67.941ZM1090.3 75.346c0-7.206 5.85-13.036 13.08-13.036 7.24 0 13.09 5.83 13.09 13.036v101.23c0 7.206-5.85 13.042-13.09 13.042-7.23 0-13.08-5.836-13.08-13.042V75.346ZM1137.31 214.153c-3.8-1.369-8.27-4.461-8.27-10.805 0-6.351 4.99-10.644 10.33-10.644 2.06 0 3.27.347 4.3.687 2.24.688 3.62 1.035 5.52 1.035 4.64 0 6.88-.861 9.29-5.495l.86-2.057-31.5-72.75c-.69-1.716-1.38-4.287-1.38-6.003 0-7.379 5.68-12.522 12.91-12.522 6.54 0 10.33 3.6 12.56 9.771l19.98 53.536 19.28-53.363c2.07-5.483 5.85-9.944 12.57-9.944 6.71 0 12.39 5.143 12.39 12.007 0 2.064-.69 4.976-1.2 6.178l-32.2 77.036c-7.75 18.699-15.49 25.737-31.16 25.737-5.85 0-9.98-.855-14.28-2.404Z" fill="#0E101A"/><path d="M142.5 0C63.802 0 0 63.797 0 142.5h285C285 63.797 221.203 0 142.5 0Z" fill="#06C"/><path d="M142.5 285c78.703 0 142.5-63.802 142.5-142.5H0C0 221.198 63.802 285 142.5 285Z" fill="#FC0"/><g filter="url(#a)"><path fill-rule="evenodd" clip-rule="evenodd" d="M170.615 161.816c-1.42 0-2.823.314-4.108.919a9.667 9.667 0 0 0-5.382 10.536c.84 4.665 5.227 7.86 9.969 7.86h14.929l8.656-1.214c-13.849 20.318-37.891 29.664-64.181 25.539-21.397-3.362-39.766-17.835-47.56-38.057-17.589-45.907 15.938-89.736 59.623-89.736 22.772 0 42.733 13.331 54.183 29.424v.35a9.703 9.703 0 0 0 13.443 2.594 9.525 9.525 0 0 0 2.783-12.68h.073a83.603 83.603 0 0 0-76.294-38.408c-41.636 2.805-75.352 36.9-77.746 78.581-2.783 48.511 35.698 88.121 83.558 88.121a82.822 82.822 0 0 0 62.984-28.661l-1.815 10.17v9.184c0 4.732 3.189 9.124 7.86 9.964a9.661 9.661 0 0 0 11.455-9.496v-54.99h-52.43Z" fill="#fff"/></g><defs><filter id="a" x="58.861" y="58.739" width="164.184" height="174.731" filterUnits="userSpaceOnUse" color-interpolation-filters="sRGB"><feFlood flood-opacity="0" result="BackgroundImageFix"/><feColorMatrix in="SourceAlpha" values="0 0 0 0 0 0 0 0 0 0 0 0 0 0 0 0 0 0 127 0" result="hardAlpha"/><feOffset dy="7"/><feColorMatrix values="0 0 0 0 0 0 0 0 0 0 0 0 0 0 0 0 0 0 0.15 0"/><feBlend in2="BackgroundImageFix" result="effect1_dropShadow_16268_50971"/><feBlend in="SourceGraphic" in2="effect1_dropShadow_16268_50971" result="shape"/></filter></defs></svg>
